<svg width="32" height="41" viewBox="0 0 32 41" fill="none" xmlns="http://www.w3.org/2000/svg">
<path fill-rule="evenodd" clip-rule="evenodd" d="M20 16.229H22.12C23.3066 16.229 23.8933 18.074 23.0533 19.1503L16.9333 26.9915C16.4133 27.6578 15.5733 27.6578 15.0533 26.9915L8.93329 19.1503C8.09329 18.074 8.69329 16.229 9.87996 16.229H12V7.68734C12 6.74775 12.6 5.979 13.3333 5.979H18.6666C19.4 5.979 20 6.74775 20 7.68734V16.229ZM7.99996 35.0207C7.26663 35.0207 6.66663 34.2519 6.66663 33.3123C6.66663 32.3728 7.26663 31.604 7.99996 31.604H24C24.7333 31.604 25.3333 32.3728 25.3333 33.3123C25.3333 34.2519 24.7333 35.0207 24 35.0207H7.99996Z" fill="black" fill-opacity="0.65"/>
</svg>
