<svg width="129" height="152" viewBox="0 0 129 152" fill="none" xmlns="http://www.w3.org/2000/svg">
<circle cx="125.997" cy="146.521" r="2.5" transform="rotate(179.016 125.997 146.521)" fill="#80011F"/>
<circle cx="108.999" cy="146.813" r="2.5" transform="rotate(179.016 108.999 146.813)" fill="#80011F"/>
<circle cx="92.0018" cy="147.105" r="2.5" transform="rotate(179.016 92.0018 147.105)" fill="#80011F"/>
<circle cx="75.0043" cy="147.397" r="2.5" transform="rotate(179.016 75.0043 147.397)" fill="#80011F"/>
<circle cx="125.722" cy="130.524" r="2.5" transform="rotate(179.016 125.722 130.524)" fill="#80011F"/>
<circle cx="108.725" cy="130.816" r="2.5" transform="rotate(179.016 108.725 130.816)" fill="#80011F"/>
<circle cx="91.7271" cy="131.107" r="2.5" transform="rotate(179.016 91.7271 131.107)" fill="#80011F"/>
<circle cx="74.7297" cy="131.399" r="2.5" transform="rotate(179.016 74.7297 131.399)" fill="#80011F"/>
<circle cx="125.447" cy="114.526" r="2.5" transform="rotate(179.016 125.447 114.526)" fill="#80011F"/>
<circle cx="108.45" cy="114.818" r="2.5" transform="rotate(179.016 108.45 114.818)" fill="#80011F"/>
<circle cx="91.4524" cy="115.11" r="2.5" transform="rotate(179.016 91.4524 115.11)" fill="#80011F"/>
<circle cx="74.455" cy="115.402" r="2.5" transform="rotate(179.016 74.455 115.402)" fill="#80011F"/>
<circle cx="125.173" cy="98.5284" r="2.5" transform="rotate(179.016 125.173 98.5284)" fill="#80011F"/>
<circle cx="108.175" cy="98.8203" r="2.5" transform="rotate(179.016 108.175 98.8203)" fill="#80011F"/>
<circle cx="91.1778" cy="99.1121" r="2.5" transform="rotate(179.016 91.1778 99.1121)" fill="#80011F"/>
<circle cx="74.1804" cy="99.4039" r="2.5" transform="rotate(179.016 74.1804 99.4039)" fill="#80011F"/>
<circle cx="124.898" cy="82.5307" r="2.5" transform="rotate(179.016 124.898 82.5307)" fill="#80011F"/>
<circle cx="107.901" cy="82.8226" r="2.5" transform="rotate(179.016 107.901 82.8226)" fill="#80011F"/>
<circle cx="90.9031" cy="83.1143" r="2.5" transform="rotate(179.016 90.9031 83.1143)" fill="#80011F"/>
<circle cx="73.9057" cy="83.4062" r="2.5" transform="rotate(179.016 73.9057 83.4062)" fill="#80011F"/>
<circle cx="124.623" cy="66.533" r="2.5" transform="rotate(179.016 124.623 66.533)" fill="#80011F"/>
<circle cx="107.626" cy="66.8249" r="2.5" transform="rotate(179.016 107.626 66.8249)" fill="#80011F"/>
<circle cx="90.6285" cy="67.1168" r="2.5" transform="rotate(179.016 90.6285 67.1168)" fill="#80011F"/>
<circle cx="73.631" cy="67.4085" r="2.5" transform="rotate(179.016 73.631 67.4085)" fill="#80011F"/>
<circle cx="124.349" cy="50.5355" r="2.5" transform="rotate(179.016 124.349 50.5355)" fill="#80011F"/>
<circle cx="107.351" cy="50.8273" r="2.5" transform="rotate(179.016 107.351 50.8273)" fill="#80011F"/>
<circle cx="90.3538" cy="51.1191" r="2.5" transform="rotate(179.016 90.3538 51.1191)" fill="#80011F"/>
<circle cx="73.3564" cy="51.411" r="2.5" transform="rotate(179.016 73.3564 51.411)" fill="#80011F"/>
<circle cx="124.074" cy="34.5378" r="2.5" transform="rotate(179.016 124.074 34.5378)" fill="#80011F"/>
<circle cx="107.077" cy="34.8297" r="2.5" transform="rotate(179.016 107.077 34.8297)" fill="#80011F"/>
<circle cx="90.0792" cy="35.1215" r="2.5" transform="rotate(179.016 90.0792 35.1215)" fill="#80011F"/>
<circle cx="73.0817" cy="35.4133" r="2.5" transform="rotate(179.016 73.0817 35.4133)" fill="#80011F"/>
<circle cx="123.799" cy="18.5402" r="2.5" transform="rotate(179.016 123.799 18.5402)" fill="#80011F"/>
<circle cx="106.802" cy="18.8321" r="2.5" transform="rotate(179.016 106.802 18.8321)" fill="#80011F"/>
<circle cx="89.8045" cy="19.1239" r="2.5" transform="rotate(179.016 89.8045 19.1239)" fill="#80011F"/>
<circle cx="72.8071" cy="19.4157" r="2.5" transform="rotate(179.016 72.8071 19.4157)" fill="#80011F"/>
<circle cx="123.525" cy="2.54255" r="2.5" transform="rotate(179.016 123.525 2.54255)" fill="#80011F"/>
<circle cx="106.527" cy="2.83442" r="2.5" transform="rotate(179.016 106.527 2.83442)" fill="#80011F"/>
<circle cx="89.5298" cy="3.12629" r="2.5" transform="rotate(179.016 89.5298 3.12629)" fill="#80011F"/>
<circle cx="72.5324" cy="3.41804" r="2.5" transform="rotate(179.016 72.5324 3.41804)" fill="#80011F"/>
<circle cx="56.0071" cy="147.723" r="2.5" transform="rotate(179.016 56.0071 147.723)" fill="#80011F"/>
<circle cx="39.0097" cy="148.015" r="2.5" transform="rotate(179.016 39.0097 148.015)" fill="#80011F"/>
<circle cx="22.0121" cy="148.307" r="2.5" transform="rotate(179.016 22.0121 148.307)" fill="#80011F"/>
<circle cx="5.0147" cy="148.598" r="2.5" transform="rotate(179.016 5.0147 148.598)" fill="#80011F"/>
<circle cx="55.7325" cy="131.725" r="2.5" transform="rotate(179.016 55.7325 131.725)" fill="#80011F"/>
<circle cx="38.7349" cy="132.017" r="2.5" transform="rotate(179.016 38.7349 132.017)" fill="#80011F"/>
<circle cx="21.7375" cy="132.309" r="2.5" transform="rotate(179.016 21.7375 132.309)" fill="#80011F"/>
<circle cx="4.74005" cy="132.601" r="2.5" transform="rotate(179.016 4.74005 132.601)" fill="#80011F"/>
<circle cx="55.4577" cy="115.728" r="2.5" transform="rotate(179.016 55.4577 115.728)" fill="#80011F"/>
<circle cx="38.4603" cy="116.02" r="2.5" transform="rotate(179.016 38.4603 116.02)" fill="#80011F"/>
<circle cx="21.4627" cy="116.311" r="2.5" transform="rotate(179.016 21.4627 116.311)" fill="#80011F"/>
<circle cx="4.46526" cy="116.603" r="2.5" transform="rotate(179.016 4.46526 116.603)" fill="#80011F"/>
<circle cx="55.183" cy="99.73" r="2.5" transform="rotate(179.016 55.183 99.73)" fill="#80011F"/>
<circle cx="38.1855" cy="100.022" r="2.5" transform="rotate(179.016 38.1855 100.022)" fill="#80011F"/>
<circle cx="21.188" cy="100.314" r="2.5" transform="rotate(179.016 21.188 100.314)" fill="#80011F"/>
<circle cx="4.19061" cy="100.606" r="2.5" transform="rotate(179.016 4.19061 100.606)" fill="#80011F"/>
<circle cx="54.9084" cy="83.7324" r="2.5" transform="rotate(179.016 54.9084 83.7324)" fill="#80011F"/>
<circle cx="37.9109" cy="84.0242" r="2.5" transform="rotate(179.016 37.9109 84.0242)" fill="#80011F"/>
<circle cx="20.9134" cy="84.316" r="2.5" transform="rotate(179.016 20.9134 84.316)" fill="#80011F"/>
<circle cx="3.91595" cy="84.6079" r="2.5" transform="rotate(179.016 3.91595 84.6079)" fill="#80011F"/>
<circle cx="54.6337" cy="67.7347" r="2.5" transform="rotate(179.016 54.6337 67.7347)" fill="#80011F"/>
<circle cx="37.6362" cy="68.0266" r="2.5" transform="rotate(179.016 37.6362 68.0266)" fill="#80011F"/>
<circle cx="20.6387" cy="68.3184" r="2.5" transform="rotate(179.016 20.6387 68.3184)" fill="#80011F"/>
<circle cx="3.64129" cy="68.6102" r="2.5" transform="rotate(179.016 3.64129 68.6102)" fill="#80011F"/>
<circle cx="54.3591" cy="51.7371" r="2.5" transform="rotate(179.016 54.3591 51.7371)" fill="#80011F"/>
<circle cx="37.3616" cy="52.029" r="2.5" transform="rotate(179.016 37.3616 52.029)" fill="#80011F"/>
<circle cx="20.3641" cy="52.3208" r="2.5" transform="rotate(179.016 20.3641 52.3208)" fill="#80011F"/>
<circle cx="3.36663" cy="52.6126" r="2.5" transform="rotate(179.016 3.36663 52.6126)" fill="#80011F"/>
<circle cx="54.0844" cy="35.7395" r="2.5" transform="rotate(179.016 54.0844 35.7395)" fill="#80011F"/>
<circle cx="37.0868" cy="36.0313" r="2.5" transform="rotate(179.016 37.0868 36.0313)" fill="#80011F"/>
<circle cx="20.0894" cy="36.3232" r="2.5" transform="rotate(179.016 20.0894 36.3232)" fill="#80011F"/>
<circle cx="3.09197" cy="36.6149" r="2.5" transform="rotate(179.016 3.09197 36.6149)" fill="#80011F"/>
<circle cx="53.8097" cy="19.7418" r="2.5" transform="rotate(179.016 53.8097 19.7418)" fill="#80011F"/>
<circle cx="36.8123" cy="20.0336" r="2.5" transform="rotate(179.016 36.8123 20.0336)" fill="#80011F"/>
<circle cx="19.8148" cy="20.3254" r="2.5" transform="rotate(179.016 19.8148 20.3254)" fill="#80011F"/>
<circle cx="2.81732" cy="20.6173" r="2.5" transform="rotate(179.016 2.81732 20.6173)" fill="#80011F"/>
<circle cx="53.5351" cy="3.74409" r="2.5" transform="rotate(179.016 53.5351 3.74409)" fill="#80011F"/>
<circle cx="36.5375" cy="4.03596" r="2.5" transform="rotate(179.016 36.5375 4.03596)" fill="#80011F"/>
<circle cx="19.5401" cy="4.32783" r="2.5" transform="rotate(179.016 19.5401 4.32783)" fill="#80011F"/>
<circle cx="2.54266" cy="4.61958" r="2.5" transform="rotate(179.016 2.54266 4.61958)" fill="#80011F"/>
</svg>
