<svg width="18" height="18" viewBox="0 0 18 18" fill="none" xmlns="http://www.w3.org/2000/svg">
<path d="M5.27263 0.0629441C4.31502 0.108124 3.66107 0.260945 3.08939 0.485586C2.49772 0.716166 1.99623 1.02559 1.49727 1.52635C0.998305 2.02711 0.691042 2.52895 0.462079 3.12151C0.240497 3.69446 0.0903755 4.34894 0.0480751 5.30708C0.00577466 6.26523 -0.00358544 6.57321 0.0010946 9.01725C0.00577465 11.4613 0.0165748 11.7677 0.0630152 12.7278C0.108736 13.6852 0.261017 14.339 0.485659 14.9108C0.716602 15.5025 1.02566 16.0038 1.52661 16.5029C2.02755 17.0021 2.52904 17.3086 3.12305 17.5379C3.69545 17.7592 4.35012 17.91 5.30809 17.9519C6.26606 17.9939 6.5744 18.0036 9.01775 17.9989C11.4611 17.9942 11.7687 17.9834 12.7287 17.9379C13.6886 17.8924 14.339 17.739 14.911 17.5154C15.5027 17.284 16.0043 16.9754 16.5031 16.4743C17.0019 15.9732 17.309 15.471 17.5378 14.8781C17.7595 14.3057 17.9102 13.651 17.9518 12.6938C17.9937 11.7331 18.0036 11.4264 17.9989 8.9827C17.9943 6.53901 17.9833 6.23265 17.9377 5.27288C17.8922 4.31312 17.7397 3.66134 17.5153 3.08911C17.284 2.49745 16.9753 1.99651 16.4745 1.49701C15.9737 0.997507 15.4712 0.690606 14.8784 0.462365C14.3057 0.240785 13.6514 0.0897642 12.6934 0.048364C11.7354 0.00696388 11.4271 -0.00365616 8.98283 0.00102385C6.53858 0.00570387 6.23258 0.0161439 5.27263 0.0629441ZM5.37775 16.3328C4.50024 16.2947 4.02378 16.1489 3.70625 16.0268C3.28577 15.8648 2.98624 15.669 2.6698 15.3556C2.35336 15.0422 2.15896 14.7416 1.99479 14.3221C1.87149 14.0045 1.72299 13.5286 1.68195 12.6511C1.63731 11.7027 1.62795 11.4179 1.62273 9.01509C1.61751 6.61227 1.62669 6.32787 1.66827 5.37908C1.70571 4.5023 1.85241 4.0253 1.97427 3.70796C2.13628 3.28694 2.3314 2.98795 2.6455 2.67169C2.9596 2.35543 3.25931 2.16067 3.67925 1.99651C3.99641 1.87267 4.47234 1.72543 5.34949 1.68367C6.29864 1.63867 6.58304 1.62967 8.98553 1.62445C11.388 1.61923 11.6731 1.62823 12.6226 1.66999C13.4994 1.70815 13.9766 1.85341 14.2936 1.97599C14.7143 2.13799 15.0136 2.33257 15.3299 2.64721C15.6461 2.96185 15.8411 3.26048 16.0052 3.68132C16.1293 3.99758 16.2765 4.47332 16.3179 5.351C16.3631 6.30015 16.3733 6.58473 16.3777 8.98701C16.382 11.3893 16.3735 11.6746 16.3319 12.623C16.2936 13.5005 16.1482 13.9772 16.0259 14.2951C15.8639 14.7154 15.6686 15.0151 15.3543 15.3311C15.0401 15.6472 14.7407 15.842 14.3206 16.0061C14.0038 16.1298 13.5273 16.2774 12.6509 16.3192C11.7018 16.3638 11.4173 16.3732 9.01397 16.3784C6.61058 16.3836 6.32708 16.3739 5.37793 16.3328M12.7148 4.18982C12.7152 4.40344 12.7789 4.61215 12.8978 4.78957C13.0168 4.96698 13.1858 5.10513 13.3833 5.18653C13.5808 5.26793 13.798 5.28894 14.0074 5.24689C14.2169 5.20484 14.4091 5.10162 14.5599 4.95029C14.7107 4.79896 14.8132 4.60632 14.8545 4.39673C14.8957 4.18714 14.8739 3.97001 14.7918 3.77281C14.7097 3.5756 14.5709 3.40719 14.3931 3.28885C14.2152 3.17052 14.0063 3.10759 13.7927 3.10801C13.5063 3.10859 13.2319 3.22287 13.0297 3.42574C12.8276 3.62861 12.7143 3.90345 12.7148 4.18982ZM4.37892 9.00898C4.38396 11.5614 6.45686 13.6258 9.00875 13.621C11.5606 13.6161 13.6265 11.5434 13.6217 8.99098C13.6168 6.43857 11.5434 4.3736 8.99111 4.37864C6.43886 4.38368 4.37406 6.45693 4.37892 9.00898ZM6.00002 9.00574C5.99884 8.41238 6.17365 7.832 6.50232 7.33799C6.831 6.84398 7.29879 6.45853 7.84653 6.23037C8.39428 6.00222 8.99737 5.94162 9.57956 6.05622C10.1617 6.17083 10.6969 6.4555 11.1173 6.87423C11.5377 7.29297 11.8245 7.82696 11.9414 8.40869C12.0583 8.99042 12.0001 9.59375 11.7741 10.1424C11.5481 10.691 11.1645 11.1603 10.6718 11.491C10.1791 11.8216 9.59941 11.9987 9.00605 11.9999C8.61205 12.0007 8.22176 11.9239 7.85745 11.7739C7.49314 11.6238 7.16196 11.4035 6.88281 11.1255C6.60367 10.8474 6.38203 10.5171 6.23056 10.1534C6.07909 9.78971 6.00075 9.39972 6.00002 9.00574Z" fill="black"/>
</svg>
