<svg width="72" height="72" viewBox="0 0 72 72" fill="none" xmlns="http://www.w3.org/2000/svg">
<path d="M36 65.5313V54.7876" stroke="black" stroke-miterlimit="10"/>
<path d="M35.6625 6.46875H36.3375C36.3375 6.46875 46.7437 6.46875 46.7437 16.875V33.6375C46.7437 33.6375 46.7437 44.0438 36.3375 44.0438H35.6625C35.6625 44.0438 25.2562 44.0437 25.2562 33.6375V16.875C25.2562 16.875 25.2562 6.46875 35.6625 6.46875Z" stroke="black" stroke-miterlimit="10"/>
<path d="M57.4874 33.3281C57.48 39.0221 55.2129 44.4803 51.184 48.5039C47.1551 52.5275 41.6939 54.7875 36 54.7875C30.306 54.7875 24.8448 52.5275 20.8159 48.5039C16.787 44.4803 14.5199 39.0221 14.5125 33.3281" stroke="black" stroke-miterlimit="10"/>
<path d="M27.9563 65.5312H44.0438" stroke="black" stroke-miterlimit="10"/>
</svg>
